<!DOCTYPE svg PUBLIC "-//W3C//DTD SVG 1.1//EN" "http://www.w3.org/Graphics/SVG/1.1/DTD/svg11.dtd">
<!-- Uploaded to: SVG Repo, www.svgrepo.com, Transformed by: SVG Repo Mixer Tools -->
<svg width="800px" height="800px" viewBox="0 0 24 24" fill="none" xmlns="http://www.w3.org/2000/svg" transform="matrix(-1, 0, 0, 1, 0, 0)">
<g id="SVGRepo_bgCarrier" stroke-width="0"/>
<g id="SVGRepo_tracerCarrier" stroke-linecap="round" stroke-linejoin="round"/>
<g id="SVGRepo_iconCarrier"> <path fill-rule="evenodd" clip-rule="evenodd" d="M19.9043 15.3421L15.0472 12.5378L19.9043 9.73356L19.9043 15.3421ZM12.8567 13.5826L20.4043 17.9402C21.071 18.3251 21.9043 17.844 21.9043 17.0742L21.9043 8.00151C21.9043 7.23171 21.071 6.75058 20.4043 7.13548L12.8567 11.4931L12.8567 8.00152C12.8567 7.23172 12.0233 6.75059 11.3567 7.13549L3.49953 11.6718C2.83287 12.0567 2.83287 13.019 3.49953 13.4039L11.3567 17.9402C12.0233 18.3251 12.8567 17.844 12.8567 17.0742L12.8567 13.5826ZM10.8567 15.3421L5.99953 12.5378L10.8567 9.73357L10.8567 15.3421Z" fill="#ffffff"/> </g>
</svg>