<!DOCTYPE svg PUBLIC "-//W3C//DTD SVG 1.1//EN" "http://www.w3.org/Graphics/SVG/1.1/DTD/svg11.dtd">
<!-- Uploaded to: SVG Repo, www.svgrepo.com, Transformed by: SVG Repo Mixer Tools -->
<svg fill="#ffffff" version="1.1" id="Layer_1" xmlns="http://www.w3.org/2000/svg" xmlns:xlink="http://www.w3.org/1999/xlink" width="800px" height="800px" viewBox="0 0 256 250" enable-background="new 0 0 256 250" xml:space="preserve" stroke="#ffffff">
<g id="SVGRepo_bgCarrier" stroke-width="0"/>
<g id="SVGRepo_tracerCarrier" stroke-linecap="round" stroke-linejoin="round"/>
<g id="SVGRepo_iconCarrier"> <path d="M192.498,118.8c9.278,0,16.8,7.522,16.8,16.8s-7.522,16.8-16.8,16.8s-16.8-7.522-16.8-16.8S183.22,118.8,192.498,118.8z M171.798,160.6c9.278,0,16.8,7.522,16.8,16.8s-7.522,16.8-16.8,16.8s-16.8-7.522-16.8-16.8S162.52,160.6,171.798,160.6z M144.998,197.3h-18.9h-18.9c-11.5,0-18.7,9.5-18.7,21.4V248h12.9v-25.9c0-1.2,1-2,2-2c1.2,0,2,0.8,2,2v25.8h41.5v-25.8 c0-1.2,1-2,2-2c1.2,0,2,1,2,2v25.8h12.9v-29.1C163.998,206.8,156.698,197.3,144.998,197.3z M149.698,118.8 c9.278,0,16.8,7.522,16.8,16.8s-7.522,16.8-16.8,16.8s-16.8-7.522-16.8-16.8S140.42,118.8,149.698,118.8z M199.098,177.4 c0,9.3,7.5,16.8,16.8,16.8s16.8-7.5,16.8-16.8s-7.5-16.8-16.8-16.8S199.098,168.1,199.098,177.4z M197.398,197.3 c-11.5,0-18.7,9.5-18.7,21.4V248h12.9v-25.9c0-1.2,1-2,2-2c1.2,0,2,0.8,2,2v25.8h41.5v-25.8c0-1.2,1-2,2-2c1.2,0,2,1,2,2v25.8h12.9 v-29.1c0.2-12.1-7.1-21.6-18.7-21.6h-18.9h-19V197.3z M39.798,160.6c9.278,0,16.8,7.522,16.8,16.8s-7.522,16.8-16.8,16.8 s-16.8-7.522-16.8-16.8S30.52,160.6,39.798,160.6z M14.798,247.9v-25.8c0-1.2,1-2,2-2c1.2,0,2,0.8,2,2v25.8h41.5v-25.8 c0-1.2,1-2,2-2c1.2,0,2,1,2,2v25.8h12.9v-29.1c0.2-12.1-7.1-21.6-18.7-21.6h-18.9h-18.9c-11.5,0-18.7,9.5-18.7,21.4v29.3 L14.798,247.9L14.798,247.9z M109.298,177.4c0,9.3,7.5,16.8,16.8,16.8c9.3,0,16.8-7.5,16.8-16.8s-7.5-16.8-16.8-16.8 S109.298,168.1,109.298,177.4z M61.298,118.8c9.278,0,16.8,7.522,16.8,16.8s-7.522,16.8-16.8,16.8s-16.8-7.522-16.8-16.8 S52.02,118.8,61.298,118.8z M106.698,118.8c9.278,0,16.8,7.522,16.8,16.8s-7.522,16.8-16.8,16.8s-16.8-7.522-16.8-16.8 S97.42,118.8,106.698,118.8z M84.098,160.6c9.278,0,16.8,7.522,16.8,16.8s-7.522,16.8-16.8,16.8s-16.8-7.522-16.8-16.8 S74.82,160.6,84.098,160.6z M128,2c-27.581,0-50,22.419-50,50s22.419,50,50,50s50-22.419,50-50S155.581,2,128,2z M143.054,19.903 l-13.602-6.935V9.366c9.839,0.323,19.247,4.086,26.667,10.538H143.054z M159.183,22.86c4.462,4.785,7.688,10.43,9.624,16.667 l-7.634,13.333l-11.237-1.72L139.72,33.505l4.086-10.699C143.86,22.86,159.183,22.86,159.183,22.86z M136.441,35.495l9.839,17.097 l-8.656,14.946h-19.247l-8.656-15l9.839-17.097h16.882V35.495z M126.548,12.968l-13.602,6.935H99.828 c7.419-6.505,16.828-10.215,26.667-10.538v3.602H126.548z M112.14,22.86l4.086,10.699L106.065,51.14l-11.183,1.72L87.14,39.419 c1.935-6.183,5.215-11.828,9.731-16.559L112.14,22.86z M93.215,55.817l0.699,14.086l-3.602,2.151 c-3.333-6.183-5.054-13.065-5.054-20.108c0-2.796,0.269-5.699,0.914-8.441L93.215,55.817z M95.204,72.591l12.312,7.849l6.774,11.989 c-9.301-3.118-17.312-9.462-22.527-17.849L95.204,72.591z M110.903,80.602l7.473-9.194h19.194l7.473,9.194l-7.473,12.903 c-3.172,0.753-6.344,1.129-9.624,1.183c-3.28,0-6.452-0.376-9.624-1.183L110.903,80.602z M141.71,92.323l6.774-11.828l12.312-7.849 l3.387,1.989C158.968,82.914,151.011,89.204,141.71,92.323z M162.032,69.903l0.699-14.086l7.097-12.258l0,0l0,0l0,0 c0.538,2.742,0.86,5.538,0.914,8.387c0,7.043-1.72,13.925-5.054,20.108L162.032,69.903z"/> </g>
</svg>