<!DOCTYPE svg PUBLIC "-//W3C//DTD SVG 1.1//EN" "http://www.w3.org/Graphics/SVG/1.1/DTD/svg11.dtd">
<!-- Uploaded to: SVG Repo, www.svgrepo.com, Transformed by: SVG Repo Mixer Tools -->
<svg fill="#FFFF00" version="1.1" id="Capa_1" xmlns="http://www.w3.org/2000/svg" xmlns:xlink="http://www.w3.org/1999/xlink" width="800px" height="800px" viewBox="0 0 448.88 448.88" xml:space="preserve" stroke="#FFFF00" transform="matrix(1, 0, 0, 1, 0, 0)rotate(0)" stroke-width="0.00448885">
<g id="SVGRepo_bgCarrier" stroke-width="0"/>
<g id="SVGRepo_tracerCarrier" stroke-linecap="round" stroke-linejoin="round" stroke="#CCCCCC" stroke-width="0.8977700000000001"/>
<g id="SVGRepo_iconCarrier"> <g> <g> <path d="M166.749,439.178c2.506,6.055,8.352,9.706,14.515,9.706c2.002,0,4.038-0.385,5.999-1.198l221.242-91.55 c8.011-3.314,11.822-12.495,8.5-20.51L282.139,9.702C279.63,3.659,273.791,0,267.62,0c-2.004,0-4.036,0.385-5.995,1.2 L40.383,92.752c-8.015,3.312-11.826,12.497-8.502,20.512L166.749,439.178z M263.38,25.96L392.242,337.37l-206.739,85.554 L56.641,111.517L263.38,25.96z"/> <polygon points="261.97,270.746 193.16,89.682 151.346,106.986 230.611,283.734 "/> <path d="M240.602,313.669c-2.545,6.596-2.324,14.162,0.638,21.315c4.516,10.925,14.058,17.717,24.886,17.717 c3.519,0,7.053-0.722,10.504-2.147c14.326-5.936,20.237-21.092,14.05-36.031c-6.147-14.888-20.991-21.512-35.418-15.564 C248.376,301.795,243.179,307.042,240.602,313.669z"/> </g> </g> </g>
</svg>